/* XPM */
static char *_96650299bfd4ed79a7cc9a3c6ab6f3bVSCKV73nKoNyc18A[] = {
/* columns rows colors chars-per-pixel */
"20 20 14 1 ",
"  c #3F3A09",
". c #7B0909",
"X c #801C1C",
"o c #A51D1D",
"O c #A52727",
"+ c #A73E3E",
"@ c #9E4444",
"# c #ADA023",
"$ c #CEC03B",
"% c #FAE73B",
"& c #E9DC5E",
"* c #F8ED85",
"= c #F6EEA3",
"- c white",
/* pixels */
"@@@@@@@@@@@@@@@@@@@@",
"@@++OOOOO+++++++++++",
"@+++++++++++++++++++",
"XXXXXXXX=%XXXXXXXXXX",
"+++++===%%%== OOOOOO",
"...X==**&-#$%  XX...",
"oo=Xo*-&$##$$%% Xooo",
"@+=X=+&$&$-$&*% X+++",
"@++.+=$$##&-&%%% OOO",
"@@==+=$#-$$$--% .OOO",
"@@+==*----$&&%%  +OO",
"@++X+&&&$$&&&**% +++",
"+++X%%$##$%%%%*% +++",
"oooX**%#$**% %%% ooo",
"...X  %%%%%%X    ...",
"@++++++     ++++++++",
"XXXXXXXXXXXXXXXXXXXX",
"@+++++++++++++++++++",
"@@@+++++++++++OOOOOO",
"@@@@@@@@@@+++++++OOO"
};
