/* XPM */
static char *_b0aff8d9a054579ef68519e111ccc13oHhztwAd00twYtwb[] = {
/* columns rows colors chars-per-pixel */
"20 20 12 1 ",
"  c #1F0404",
". c #340A0A",
"X c #5E1E1E",
"o c #7B0909",
"O c #7F2F2F",
"+ c #663131",
"@ c #7C4D4D",
"# c #801C1C",
"$ c #A51D1D",
"% c #A52727",
"& c #A73E3E",
"* c #9E4444",
/* pixels */
"********************",
"**&&%%%%%&&&&&&&&&&&",
"*&.. ....   ..  ..&&",
"## ##############.##",
"&& &&%%%%%%%%%%%%.%%",
"oo ##############.oo",
"$$.#$$$$$$$$$$$$# $$",
"*&.#&&&&&&&&&&&&#.&&",
"*& o+O&&&%%%%%%%o.%%",
"** o@O&&&&&&&%%%o %%",
"**.o+X%%%%%&&&&&o %%",
"*&.#+X%%%&&&&&&&#.&&",
"&&.#&&&&&&&&&&&&#.&&",
"$$ #$$$$$$$$$$$$#.$$",
"oo.############## oo",
"*& &&&&&&&&&&&&&& &&",
"##.############## ##",
"*&..  ..   .. . . &&",
"***&&&&&&&&&&&%%%%%%",
"**********&&&&&&&%%%"
};
