/* XPM */
static char *bd70c5ab20d24152bb006ef1cd5d317779QgeVWr6cxifmzQ[] = {
/* columns rows colors chars-per-pixel */
"20 20 26 1 ",
"  c #010101",
". c #030101",
"X c #060101",
"o c #0D0101",
"O c #160202",
"+ c #1F0404",
"@ c #230505",
"# c #2C0404",
"$ c #340A0A",
"% c #3B0808",
"& c #281515",
"* c #3B1111",
"= c #400909",
"- c #550A0A",
"; c #550F0F",
": c #5B1111",
"> c #551C1C",
", c #7B0909",
"< c #771212",
"1 c #771919",
"2 c #782A2A",
"3 c #801C1C",
"4 c #A51D1D",
"5 c #A52727",
"6 c #A73E3E",
"7 c #9E4444",
/* pixels */
"77777777777777777777",
"77665555566666666666",
"76$$+$$$$+++$$++$$66",
"33+@@@@@@@@O@@$$:$33",
"66+@@@@@@@@O@@111$55",
",,+@@@@@OOOO#=:::$,,",
"44$@@@OooO@$-<<<3+44",
"76$@@@OX.XO*>>223$66",
"76+@OOoX.XO%;;11,$55",
"77+@OOoX.XO*&;;1,+55",
"77$@OOoXXoO*&>>2,+55",
"76$@@Oo..XO*>>223$66",
"66$@@OO.XXO*>>223$66",
"44$@@OOXXXO$-<<<3$44",
",,$@@@@OooO@#=::3+,,",
"76+@@@@@OOO@@@222+66",
"33$@@@@@@@@@@@$@:+33",
"76$$++$$+++$$+$+$+66",
"77766666666666555555",
"77777777776666666555"
};
