/* XPM */
static char *result[] = {
/* columns rows colors chars-per-pixel */
"20 20 14 1 ",
"  c #160101",
". c #240101",
"X c #240303",
"o c #2B0202",
"O c #380303",
"+ c #380707",
"@ c #420505",
"# c #530707",
"$ c #521C1C",
"% c #610C0C",
"& c #782C2C",
"* c #8C1616",
"= c #AC4343",
"- c #B25E5E",
/* pixels */
"++++++++++++++++++++",
"+===&&&&&=#####****+",
"+########*======###+",
"+&&=====##*********+",
"+**#####==========#+",
"+###**********=*=**+",
"+#**===========#===+",
"+####&&&=&&=####==#+",
"+*********##=====##+",
"+#==#####*%%%%%%*%#+",
"+================##+",
"+##########*****%%%+",
"+&&&&&===&-=-&&&&&&+",
"X*********##ooo@%%%X",
"+&&....OO%O&&&&&&&&X",
"X@@@@@@...@@@@@@@@@ ",
"XO&&&&&&&&&&OOOOOOOX",
"X@%OOOOOOOOO&&&&&&&X",
"X$&&===&&&&&&&O%%%%X",
"XXXXXXX+++++XXXXXXXX"
};
